<?xml version="1.0" encoding="UTF-8" ?>
<!-- Sure Cuts A Lot -->
<!DOCTYPE svg PUBLIC "-//W3C//DTD SVG 1.1//EN" "http://www.w3.org/Graphics/SVG/1.1/DTD/svg11.dtd">
<svg version="1.1" xmlns="http://www.w3.org/2000/svg" xmlns:xlink="http://www.w3.org/1999/xlink" xmlns:scal="http://www.craftedge.com/namespaces/surecutsalot" scal:dpi="72" x="0px" y="0px" width="342px" height="126px" viewbox="0 0 342 126" xml:space="preserve">
<g id="&lt;group&gt;">
<g id="&lt;group&gt;">
<g id="&lt;group&gt;">
<path style="fill:#000000;stroke:#000000;" d="M 128.32 103.467 L 130.979 86.0959 L 129.057 74.5738 L 127.232 74.5738 L 127.232 73.4321 L 137.164 73.4321 L 137.164 74.5738 L 135.275 74.5738 L 140.046 103.102 L 143.89 74.5738 L 140.653 74.5738 L 140.653 73.4321 L 147.062 73.4321 L 147.062 74.5738 L 144.948 74.5738 L 139.052 116.25 L 136.202 116.25 L 131.46 88.9924 L 127.296 116.25 L 124.508 116.25 L 116.436 74.5738 L 114.931 74.5738 L 114.931 73.4321 L 125.342 73.4321 L 125.342 74.5738 L 123.099 74.5738 L 128.32 103.467 z"/>
<path style="fill:#000000;stroke:#000000;" d="M 163.308 97.0077 L 163.308 92.5489 C 163.308 85.1907 163.116 80.548 162.734 78.615 C 162.306 76.4016 161.697 75.038 160.906 74.5183 C 160.459 74.1912 159.914 74.0336 159.272 74.0336 C 158.631 74.0336 158.083 74.1912 157.623 74.5183 C 157.163 74.8366 156.784 75.3972 156.484 76.2002 C 156.185 77.0061 155.947 77.8529 155.765 78.7405 C 155.584 79.6194 155.439 80.8692 155.332 82.4781 C 155.204 84.8082 155.14 88.2449 155.14 92.7855 L 155.14 97.1333 C 155.14 102.033 155.242 105.528 155.445 107.592 C 155.648 109.666 155.899 111.143 156.196 112.028 C 156.859 113.996 157.885 114.983 159.272 114.983 C 160.959 114.983 162.055 113.643 162.557 110.974 C 163.057 108.299 163.308 103.642 163.308 97.0077 zM 159.208 116.25 C 155.642 116.25 152.978 114.428 151.216 110.793 C 149.455 107.155 148.573 101.884 148.573 94.9929 C 148.573 88.0931 149.519 82.6649 151.406 78.7084 C 153.298 74.7431 155.971 72.7634 159.433 72.7634 C 162.894 72.7634 165.503 74.6438 167.264 78.4076 C 169.029 82.1627 169.908 87.5033 169.908 94.4206 C 169.908 101.329 169.018 106.702 167.235 110.521 C 165.45 114.34 162.777 116.25 159.208 116.25 z"/>
<path style="fill:#000000;stroke:#000000;" d="M 181.73 94.2951 L 180.033 94.2951 L 180.033 114.498 L 182.115 114.498 L 182.115 115.649 L 171.702 115.649 L 171.702 114.498 L 173.784 114.498 L 173.784 74.5743 L 171.702 74.5743 L 171.702 73.4309 L 181.378 73.4309 C 184.152 73.4309 186.125 73.701 187.287 74.2412 C 188.453 74.7869 189.268 75.441 189.741 76.2002 C 190.765 77.7711 191.278 80.2647 191.278 83.684 C 191.278 87.1003 190.826 89.5443 189.931 91.0072 C 189.035 92.4789 187.667 93.3519 185.831 93.6352 L 185.831 93.8162 C 187.56 94.2571 188.768 95.2236 189.45 96.7069 C 190.134 98.1961 190.476 100.69 190.476 104.188 L 190.476 107.388 C 190.476 109.473 190.535 110.88 190.65 111.607 C 190.77 112.332 191.021 112.688 191.404 112.688 C 191.789 112.688 192.093 112.364 192.321 111.695 C 192.542 111.029 192.751 109.636 192.943 107.505 L 193.489 107.625 C 193.253 111.044 192.839 113.336 192.254 114.498 C 191.666 115.666 190.498 116.25 188.744 116.25 C 186.993 116.25 185.753 115.479 185.015 113.926 C 184.278 112.381 183.909 109.473 183.909 105.213 L 183.909 100.809 C 183.909 98.5611 183.754 96.9084 183.444 95.866 C 183.136 94.8207 182.562 94.2951 181.73 94.2951 zM 180.033 74.5738 L 180.033 93.1505 L 181.057 93.1505 C 182.273 93.1505 183.176 92.4467 183.764 91.0393 C 184.353 89.6319 184.644 87.3398 184.644 84.1687 L 184.644 82.4138 C 184.644 79.2428 184.363 77.1375 183.797 76.1126 C 183.23 75.0906 182.326 74.5738 181.089 74.5738 L 180.033 74.5738 z"/>
<path style="fill:#000000;stroke:#000000;" d="M 194.961 73.4321 L 204.734 73.4321 L 204.734 74.5738 L 202.972 74.5738 L 202.972 93.6352 L 203.229 93.5154 L 212.261 74.5738 L 209.732 74.5738 L 209.732 73.4321 L 215.34 73.4321 L 215.34 74.5738 L 213.415 74.5738 L 207.904 86.1513 L 215.591 114.498 L 217.323 114.498 L 217.323 115.649 L 207.038 115.649 L 207.038 114.498 L 208.545 114.498 L 203.258 95.2616 L 202.972 95.3813 L 202.972 114.498 L 204.734 114.498 L 204.734 115.649 L 194.961 115.649 L 194.961 114.498 L 196.723 114.498 L 196.723 74.5738 L 194.961 74.5738 L 194.961 73.4321 z"/>
<path style="fill:#000000;stroke:#000000;" d="M 228.087 114.983 C 229.154 114.983 230.1 114.443 230.923 113.354 C 231.744 112.267 232.155 110.629 232.155 108.442 C 232.155 106.249 231.712 104.573 230.827 103.402 C 229.939 102.234 228.68 101.224 227.045 100.357 C 225.409 99.4955 224.225 98.7421 223.487 98.0939 C 222.755 97.4545 222.052 96.6077 221.391 95.5623 C 220.068 93.4716 219.403 90.2363 219.403 85.8506 C 219.403 82.2766 220.084 79.199 221.44 76.6294 C 222.795 74.054 224.65 72.7634 226.999 72.7634 C 228.13 72.7634 229.309 73.0787 230.536 73.7007 C 231.765 74.3226 232.53 74.638 232.829 74.638 C 233.126 74.638 233.393 74.235 233.631 73.4321 L 233.981 73.4321 L 234.208 85.6112 L 233.692 85.6112 C 232.669 82.1131 231.594 79.3099 230.471 77.2017 C 229.351 75.0906 228.133 74.0336 226.823 74.0336 C 225.508 74.0336 224.489 74.6059 223.762 75.7476 C 223.035 76.898 222.674 78.4252 222.674 80.3348 C 222.674 82.2445 223.105 83.7161 223.968 84.7381 C 224.837 85.763 225.898 86.5981 227.16 87.2405 C 228.416 87.8858 229.244 88.3267 229.643 88.5661 C 230.036 88.8114 230.525 89.1443 231.113 89.5648 C 231.701 89.9852 232.182 90.4232 232.556 90.8904 C 232.928 91.3547 233.326 91.9328 233.74 92.6365 C 234.157 93.3402 234.483 94.1199 234.719 94.9608 C 235.296 96.888 235.582 99.1831 235.582 101.834 C 235.582 106.179 234.86 109.666 233.42 112.299 C 231.979 114.93 230.081 116.25 227.732 116.25 C 226.518 116.25 225.123 115.949 223.554 115.345 C 221.982 114.743 221.111 114.443 220.942 114.443 C 220.646 114.443 220.354 115.044 220.076 116.25 L 219.63 116.25 L 219.309 101.896 L 219.854 101.896 C 220.79 105.397 221.993 108.448 223.458 111.061 C 224.92 113.675 226.465 114.983 228.087 114.983 z"/>
<path style="fill:#000000;stroke:#000000;" d="M 237.573 73.4321 L 247.567 73.4321 L 247.567 74.5738 L 245.707 74.5738 L 245.707 93.2702 L 252.082 93.2702 L 252.082 74.5738 L 250.192 74.5738 L 250.192 73.4321 L 260.221 73.4321 L 260.221 74.5738 L 258.329 74.5738 L 258.329 114.498 L 260.221 114.498 L 260.221 115.649 L 250.192 115.649 L 250.192 114.498 L 252.082 114.498 L 252.082 94.8411 L 245.707 94.8411 L 245.707 114.498 L 247.567 114.498 L 247.567 115.649 L 237.573 115.649 L 237.573 114.498 L 239.46 114.498 L 239.46 74.5738 L 237.573 74.5738 L 237.573 73.4321 z"/>
<path style="fill:#000000;stroke:#000000;" d="M 276.946 97.0077 L 276.946 92.5481 C 276.946 85.1907 276.751 80.548 276.368 78.6135 C 275.941 76.4022 275.329 75.0392 274.543 74.5174 C 274.091 74.191 273.548 74.0339 272.907 74.0339 C 272.265 74.0339 271.715 74.191 271.258 74.5174 C 270.798 74.838 270.418 75.3972 270.122 76.2002 C 269.82 77.0052 269.579 77.8529 269.4 78.7405 C 269.216 79.6188 269.074 80.8689 268.967 82.4772 C 268.839 84.8082 268.775 88.2444 268.775 92.7866 L 268.775 97.1338 C 268.775 102.034 268.876 105.527 269.079 107.594 C 269.282 109.667 269.534 111.143 269.83 112.028 C 270.493 113.996 271.52 114.983 272.907 114.983 C 274.596 114.983 275.689 113.644 276.192 110.974 C 276.692 108.298 276.946 103.643 276.946 97.0077 zM 272.843 116.25 C 269.277 116.25 266.612 114.428 264.851 110.793 C 263.089 107.155 262.207 101.884 262.207 94.9929 C 262.207 88.0931 263.153 82.6649 265.04 78.7084 C 266.933 74.7431 269.606 72.7634 273.067 72.7634 C 276.529 72.7634 279.138 74.6438 280.899 78.4076 C 282.663 82.1627 283.543 87.5033 283.543 94.4206 C 283.543 101.329 282.652 106.702 280.87 110.521 C 279.084 114.34 276.411 116.25 272.843 116.25 z"/>
<path style="fill:#000000;stroke:#000000;" d="M 285.339 73.4321 L 294.755 73.4321 C 297.984 73.4321 300.387 74.3051 301.964 76.0513 C 303.547 77.8032 304.338 80.9246 304.338 85.4301 C 304.338 90.4174 303.378 93.8542 301.454 95.7463 C 299.66 97.472 297.15 98.3392 293.927 98.3392 L 293.67 98.3392 L 293.67 114.498 L 297.674 114.498 L 297.674 115.649 L 285.339 115.649 L 285.339 114.498 L 287.421 114.498 L 287.421 74.5738 L 285.339 74.5738 L 285.339 73.4321 zM 293.67 74.5738 L 293.67 97.1917 L 294.344 97.1917 C 295.624 97.1917 296.509 96.3682 297.001 94.7214 C 297.493 93.0687 297.736 90.3999 297.736 86.7003 L 297.736 83.8037 C 297.736 80.3845 297.506 77.993 297.049 76.6294 C 296.589 75.2599 295.752 74.5738 294.534 74.5738 L 293.67 74.5738 z"/>
</g>
<g id="DIY">
<path id="D" style="fill:#000000;stroke:#000000;" d="M 98.9728 98.5699 C 103.291 98.5699 106.3 99.5481 108 101.504 C 109.574 103.312 110.36 105.797 110.36 108.953 L 110.36 116.122 L 109.76 116.122 L 109.76 114.451 L 88.9354 114.451 L 88.9354 116.122 L 88.339 116.122 L 88.339 108.296 C 88.339 105.052 89.1615 102.623 90.8067 100.999 C 92.4545 99.3787 95.1745 98.5699 98.9728 98.5699 zM 109.762 109.511 L 109.762 108.547 C 109.762 106.845 109.013 105.622 107.511 104.889 C 106.011 104.153 103.502 103.785 99.9786 103.785 L 98.153 103.785 C 93.4352 103.785 90.5939 104.512 89.6263 105.966 C 89.1692 106.655 88.934 107.636 88.934 108.901 L 88.934 109.511 L 109.762 109.511 z"/>
<path id="I" style="fill:#000000;stroke:#000000;" d="M 88.339 96.8967 L 88.339 89.1706 L 88.9354 89.1706 L 88.934 90.5634 L 109.762 90.5634 L 109.762 89.1706 L 110.36 89.1706 L 110.36 96.8967 L 109.762 96.8967 L 109.762 95.501 L 88.934 95.501 L 88.934 96.8967 L 88.339 96.8967 z"/>
<path id="Y" style="fill:#000000;stroke:#000000;" d="M 98.6876 78.4798 L 88.8405 74.8833 L 88.8405 77.4411 L 88.338 77.4397 L 88.338 72.4501 L 88.8405 72.4501 L 88.8405 74.1232 L 99.3505 77.9466 L 109.762 77.9466 L 109.762 76.4031 L 110.36 76.4031 L 110.36 84.4324 L 109.762 84.4324 L 109.762 82.8866 L 99.9465 82.8866 L 88.8405 87.1929 L 88.8405 88.3831 L 88.338 88.3822 L 88.338 80.2764 L 88.8405 80.2764 L 88.8405 81.9233 L 98.6876 78.4798 z"/>
</g>
</g>
<path style="fill:#000000;" d="M 54.9028 18.4341 C 50.252 25.0709 49.5183 30.5961 51.9678 40.5183 C 53.187 45.3704 54.169 52.159 54.169 55.7422 C 54.169 63.2811 52.3346 65.8161 43.8938 69.7745 C 38.021 72.4612 35.817 74.0997 37.1576 74.9217 C 38.2582 75.5948 79.3675 75.5948 82.1839 74.9217 C 85.6071 74.028 82.799 71.6364 76.1925 69.7745 C 63.9505 66.1912 61.9975 61.3391 66.0331 43.5802 C 68.7226 31.4899 68.7226 30.8196 66.7669 25.3744 C 64.9325 20.0726 60.7755 14.6274 58.5743 14.6274 C 58.0777 14.6274 56.4916 16.3404 54.9028 18.4341 z"/>
<path style="fill:#000000;" d="M 52.4533 81.04 C 45.3613 81.3434 39.2403 81.6386 38.7548 81.7103 C 38.1396 81.7103 37.7728 82.9819 37.7728 84.3998 L 37.7728 87.012 L 46.095 86.9376 C 50.6189 86.8631 59.7935 86.5624 66.5214 86.2645 C 77.4118 85.7432 76.678 85.6687 59.7935 85.8921 C 35.2046 86.19 39.4885 84.9239 65.0511 84.2536 C 82.5508 83.804 83.1659 83.7267 82.799 82.2372 C 82.4321 80.8166 81.5687 80.6676 73.8616 80.5931 C 69.2191 80.5186 59.548 80.7421 52.4533 81.04 z"/>
<path style="fill:#339999;stroke:#339999;" d="M 72.0639 90.4546 L 69.9813 93.2131 L 70.5962 90.7525 C 72.0639 85.7542 68.761 88.6644 64.9711 95.8281 C 62.769 99.9304 60.5667 103.439 60.0713 103.663 C 59.5852 103.887 60.0713 102.096 61.301 99.7065 C 64.3565 93.8858 65.5769 88.3618 63.9894 88.3618 C 63.2554 88.3609 62.4022 89.3347 61.9065 90.6008 C 60.8059 93.7344 59.217 93.9578 59.8321 90.9015 C 60.439 87.9913 58.1164 87.3935 56.5303 90.0075 C 53.4656 94.8541 51.3912 97.5405 50.8947 97.1712 C 50.5279 96.9472 51.143 95.3801 52.125 93.5893 C 53.0987 91.8711 53.9594 89.9277 53.9594 89.3347 C 53.9594 87.3927 51.143 88.7361 49.5569 91.4228 L 48.0866 93.9578 L 47.9597 91.1277 C 47.8411 87.1696 45.2702 87.9138 42.9504 92.5425 L 41.1132 96.1974 L 40.7464 92.6153 C 40.4981 90.6789 39.8857 89.1118 39.3975 89.1118 C 38.912 89.1118 37.8114 91.7207 37.0776 94.9316 C 35.1136 102.688 33.4061 106.272 31.5717 106.272 C 30.7084 106.272 28.634 107.99 26.9182 110.004 L 23.6164 113.738 L 27.1665 112.171 C 31.3235 110.38 31.6904 110.827 28.1402 113.884 L 25.4507 116.122 L 29.2409 114.93 C 31.3235 114.258 33.4061 113.435 33.773 112.988 C 34.1399 112.619 35.1136 112.244 35.7287 112.244 C 36.4625 112.244 35.7287 113.289 34.2612 114.555 C 31.5717 116.872 31.5717 116.872 34.1399 116.049 C 37.5631 114.93 42.2166 111.124 45.2702 107.022 C 47.226 104.408 47.5929 104.184 46.986 105.902 C 46.6191 107.094 45.2702 109.629 44.051 111.422 C 41.6015 114.93 41.6015 115.976 44.1696 114.108 C 46.7377 112.244 48.208 112.842 46.004 114.93 C 44.051 116.794 44.051 116.794 46.4922 116.049 C 47.8411 115.602 49.3086 114.857 49.6755 114.482 C 51.143 112.988 52.8587 113.739 51.5099 115.226 C 49.5569 117.394 51.3912 117.019 56.1634 114.257 L 60.3204 111.868 L 58.235 114.409 C 56.0337 117.096 57.1344 117.017 62.2734 114.258 C 65.2111 112.618 65.7049 112.988 63.6222 115.45 C 62.6402 116.794 62.8885 116.721 65.4566 115.082 L 68.513 112.988 L 68.8799 115.082 C 69.2467 116.795 69.7433 116.345 72.3114 112.244 C 74.0189 109.557 75.4864 107.918 75.7346 108.662 C 75.9829 109.333 75.2491 111.124 74.1457 112.691 C 73.1665 114.185 72.5514 115.602 72.7969 115.753 C 73.412 116.2 78.4227 111.797 78.4227 110.829 C 78.4227 110.379 78.9187 110.004 79.5239 110.004 C 80.139 110.004 80.3865 110.749 80.0193 111.645 C 78.9187 114.258 81.4876 112.395 83.1943 109.333 C 84.9103 106.048 85.0295 103.137 83.3228 104.783 C 82.4606 105.6 82.0934 104.856 82.0929 102.17 C 82.0929 99.483 81.726 98.7382 80.8736 99.5547 C 80.0185 100.305 79.8916 98.5148 80.5067 94.0378 C 81.1219 89.1118 80.8736 87.5447 79.8916 87.9138 C 79.0365 88.2161 78.4241 89.1846 78.4241 90.0797 C 78.4241 90.9754 77.8172 92.2462 77.2021 92.8393 C 76.3497 93.6627 75.9829 93.1413 75.9829 90.7525 C 75.9829 86.8741 74.7526 86.7941 72.0639 90.4546 z"/>
<g id="&lt;group&gt; (1) (1)">
<path style="fill:#339999;stroke:#339999;" d="M 97.5888 62.6185 C 98.7866 62.6185 99.8454 62.0017 100.77 60.7559 C 101.69 59.5101 102.15 57.6313 102.15 55.1276 C 102.15 52.6159 101.653 50.6927 100.661 49.3542 C 99.6662 48.0153 98.2546 46.8561 96.4232 45.8631 C 94.5891 44.877 93.2603 44.013 92.4341 43.2703 C 91.6107 42.5365 90.8246 41.5649 90.0841 40.3715 C 88.6002 37.9726 87.8543 34.2675 87.8543 29.244 C 87.8543 25.1477 88.6189 21.62 90.1375 18.6772 C 91.6561 15.726 93.7362 14.2504 96.3697 14.2504 C 97.637 14.2504 98.9577 14.6104 100.335 15.3232 C 101.712 16.0361 102.57 16.3949 102.907 16.3949 C 103.238 16.3949 103.538 15.9353 103.805 15.012 L 104.198 15.012 L 104.452 28.9698 L 103.874 28.9698 C 102.727 24.9607 101.522 21.7506 100.265 19.3324 C 99.0085 16.9138 97.6423 15.7046 96.1718 15.7046 C 94.6987 15.7046 93.5571 16.3586 92.7416 17.6689 C 91.9262 18.9873 91.5224 20.737 91.5224 22.9222 C 91.5224 25.1115 92.0037 26.7967 92.9742 27.9699 C 93.9447 29.1432 95.1345 30.0999 96.5488 30.8341 C 97.9605 31.5755 98.8882 32.0795 99.332 32.3528 C 99.7758 32.6334 100.324 33.0148 100.984 33.4974 C 101.642 33.9812 102.179 34.4852 102.599 35.0174 C 103.019 35.5496 103.463 36.2108 103.928 37.0171 C 104.396 37.8235 104.762 38.7145 105.024 39.6821 C 105.671 41.8899 105.992 44.5169 105.992 47.5544 C 105.992 52.5352 105.185 56.5302 103.567 59.546 C 101.952 62.5621 99.8266 64.074 97.1931 64.074 C 95.8323 64.074 94.2682 63.7273 92.509 63.0378 C 90.7471 62.3444 89.7712 62.0017 89.5787 62.0017 C 89.2472 62.0017 88.921 62.6911 88.6109 64.074 L 88.1083 64.074 L 87.75 47.6266 L 88.3596 47.6266 C 89.4103 51.6353 90.7578 55.1316 92.3994 58.1272 C 94.0383 61.1228 95.7708 62.6185 97.5888 62.6185 z"/>
<path style="fill:#339999;stroke:#339999;" d="M 108.365 15.012 L 119.319 15.012 L 119.319 16.3223 L 117.344 16.3223 L 117.344 62.0662 L 119.319 62.0662 L 119.319 63.3805 L 108.365 63.3805 L 108.365 62.0662 L 110.34 62.0662 L 110.34 16.3223 L 108.365 16.3223 L 108.365 15.012 z"/>
<path style="fill:#339999;stroke:#339999;" d="M 134.225 62.6911 C 135.399 62.6911 136.147 62.2759 136.468 61.4453 C 136.792 60.6188 136.955 59.2158 136.955 57.2281 L 136.955 43.8267 L 134.656 43.8267 L 134.656 42.3067 L 145 42.3067 L 145 43.8267 L 143.601 43.8267 L 143.601 63.312 L 143.061 63.312 C 142.628 62.1589 142.019 61.5824 141.227 61.5824 C 140.89 61.5824 139.893 62.0017 138.228 62.8282 C 136.567 63.6547 135.145 64.074 133.974 64.074 C 130.073 64.074 127.049 62.042 124.905 57.9901 C 122.761 53.9383 121.691 47.8423 121.691 39.7143 C 121.691 31.5824 122.809 25.305 125.047 20.8862 C 127.287 16.4594 130.298 14.25 134.083 14.25 C 135.541 14.25 137.008 14.6088 138.482 15.3224 C 139.952 16.0361 140.81 16.3949 141.048 16.3949 C 141.289 16.3949 141.468 16.286 141.588 16.0844 C 141.709 15.8788 141.837 15.516 141.984 15.012 L 142.377 15.012 L 142.666 30.006 L 142.019 30.006 C 140.848 25.5348 139.663 22.0232 138.482 19.467 C 137.297 16.915 135.971 15.6329 134.514 15.6329 C 130.851 15.6329 129.017 22.5191 129.017 36.2954 L 129.017 41.7544 C 129.017 48.6648 129.466 53.8818 130.364 57.4015 C 131.26 60.9293 132.549 62.6911 134.225 62.6911 z"/>
<path style="fill:#339999;stroke:#339999;" d="M 167.375 16.3223 L 167.375 63.3805 L 162.349 63.3805 L 150.026 18.6768 L 150.026 62.0662 L 152.002 62.0662 L 152.002 63.3805 L 147.082 63.3805 L 147.082 62.0662 L 149.058 62.0662 L 149.058 16.3223 L 147.082 16.3223 L 147.082 15.012 L 156.996 15.012 L 166.407 49.7009 L 166.407 16.3223 L 164.431 16.3223 L 164.431 15.012 L 169.351 15.012 L 169.351 16.3223 L 167.375 16.3223 z"/>
<path style="fill:#339999;stroke:#339999;" d="M 183.037 15.012 L 194.71 15.012 L 194.71 16.3223 L 192.734 16.3223 L 192.734 46.1732 C 192.734 52.3901 192.002 56.9177 190.542 59.756 C 189.082 62.5823 186.89 64.0014 183.967 64.0014 C 182.032 64.0014 180.492 63.2878 179.355 61.8646 C 178.219 60.4293 177.65 58.4296 177.65 55.8453 C 177.65 53.8657 177.933 52.3135 178.511 51.1806 C 179.085 50.0597 179.869 49.4913 180.863 49.4913 C 181.855 49.4913 182.599 49.971 183.091 50.9427 C 183.58 51.9103 183.826 53.0755 183.826 54.4342 C 183.826 55.7888 183.695 57.1636 183.43 58.5465 L 182.032 58.5465 C 181.813 59.2359 181.706 59.8931 181.706 60.51 C 181.706 61.1349 181.869 61.663 182.192 62.1025 C 182.513 62.5419 182.941 62.7556 183.467 62.7556 C 184.425 62.7556 185.042 62.038 185.315 60.5825 C 185.593 59.1271 185.729 55.9904 185.729 51.1523 L 185.729 16.3223 L 183.037 16.3223 L 183.037 15.012 z"/>
<path style="fill:#339999;stroke:#339999;" d="M 205.017 48.6648 C 205.017 52.9021 205.391 56.1476 206.148 58.4094 C 206.902 60.6632 208.26 61.792 210.225 61.792 C 212.185 61.792 213.698 60.6188 214.749 58.2643 C 215.805 55.9178 216.331 52.3498 216.331 47.556 L 216.331 16.3223 L 213.997 16.3223 L 213.997 15.012 L 219.238 15.012 L 219.238 16.3223 L 217.262 16.3223 L 217.262 47.0722 C 217.262 52.7852 216.604 57.0467 215.286 59.8568 C 213.971 62.671 211.645 64.074 208.303 64.074 C 204.961 64.074 202.413 62.7355 200.651 60.0624 C 198.891 57.3934 198.015 52.8094 198.015 46.3183 L 198.015 16.3223 L 196.039 16.3223 L 196.039 15.012 L 207.351 15.012 L 207.351 16.3223 L 205.017 16.3223 L 205.017 48.6648 z"/>
<path style="fill:#339999;stroke:#339999;" d="M 241.003 16.3223 L 241.003 63.3805 L 235.977 63.3805 L 223.657 18.6768 L 223.657 62.0662 L 225.63 62.0662 L 225.63 63.3805 L 220.711 63.3805 L 220.711 62.0662 L 222.687 62.0662 L 222.687 16.3223 L 220.711 16.3223 L 220.711 15.012 L 230.627 15.012 L 240.035 49.7009 L 240.035 16.3223 L 238.06 16.3223 L 238.06 15.012 L 242.979 15.012 L 242.979 16.3223 L 241.003 16.3223 z"/>
<path style="fill:#339999;stroke:#339999;" d="M 244.776 15.012 L 255.73 15.012 L 255.73 16.3223 L 253.754 16.3223 L 253.754 38.1621 L 254.042 38.0251 L 264.17 16.3223 L 261.333 16.3223 L 261.333 15.012 L 267.619 15.012 L 267.619 16.3223 L 265.464 16.3223 L 259.285 29.5907 L 267.905 62.0662 L 269.846 62.0662 L 269.846 63.3805 L 258.315 63.3805 L 258.315 62.0662 L 260.002 62.0662 L 254.077 40.0248 L 253.754 40.1619 L 253.754 62.0662 L 255.73 62.0662 L 255.73 63.3805 L 244.776 63.3805 L 244.776 62.0662 L 246.752 62.0662 L 246.752 16.3223 L 244.776 16.3223 L 244.776 15.012 z"/>
<path style="fill:#339999;stroke:#339999;" d="M 271.137 15.012 L 282.091 15.012 L 282.091 16.3223 L 280.115 16.3223 L 280.115 62.0662 L 282.091 62.0662 L 282.091 63.3805 L 271.137 63.3805 L 271.137 62.0662 L 273.113 62.0662 L 273.113 16.3223 L 271.137 16.3223 L 271.137 15.012 z"/>
<path style="fill:#339999;stroke:#339999;" d="M 283.746 15.012 L 302.421 15.012 L 302.782 28.6957 L 302.135 28.6957 C 301.127 24.039 300.071 20.8499 298.972 19.1243 C 297.873 17.3947 296.256 16.532 294.125 16.532 L 292.866 16.532 L 292.866 37.8799 L 294.088 37.8799 C 295.213 37.8799 296.16 37.0655 296.927 35.4327 C 297.692 33.7917 298.232 31.5985 298.542 28.8327 L 299.082 28.8327 L 299.082 49.2816 L 298.472 49.2816 C 298.037 45.8264 297.456 43.3671 296.726 41.8915 C 295.999 40.4159 294.999 39.6821 293.727 39.6821 L 292.866 39.6821 L 292.866 61.8646 L 294.232 61.8646 C 296.435 61.8646 298.307 60.5987 299.852 58.0627 C 301.397 55.5308 302.456 52.2772 303.031 48.318 L 303.75 48.318 L 303.461 63.3805 L 283.746 63.3805 L 283.746 61.8646 L 285.864 61.8646 L 285.864 16.532 L 283.746 16.532 L 283.746 15.012 z"/>
</g>
</g>

</svg>